<svg width="73" height="58" viewBox="0 0 73 58" fill="none" xmlns="http://www.w3.org/2000/svg">
<path d="M35.9856 54.2786C34.6864 52.2911 23.9981 55.3309 18.8163 57.0992C20.9877 52.2007 27.0272 49.9002 31.6852 48.806C19.7765 40.5462 14.0825 41.9526 0.408372 39.2124C18 28.6593 29.9359 36.8026 34.6342 36.7185C33.7889 33.8445 25.2548 26.1629 23.6169 24.9218C21.979 23.6807 18.2833 21.8207 11.4885 15.5355C14.471 14.2493 24.2693 17.3833 30.8716 22.4254C37.4739 27.4675 39.888 35.4293 39.6176 34.2252C39.3473 33.0211 38.5221 30.6521 37.9271 28.4771C37.3321 26.3021 36.5559 19.5814 40.1227 12.2333C46.3466 4.99809 53.7606 2.11294 57.6539 0.165012C57.6209 7.70269 54.1459 13.7686 49.2929 20.7299C45.8346 27.6117 45.1942 29.4775 45.912 39.1123C51.9678 28.4582 70.3357 24.6258 72.6806 27.2647C61.2102 33.7454 55.85 45.8854 54.6037 51.1453C48.939 53.0179 37.2847 56.2662 35.9856 54.2786Z" fill="#97AB1E"/>
</svg>
